
<svg width="117px" height="143px" viewBox="0 0 117 143" version="1.1" xmlns="http://www.w3.org/2000/svg" xmlns:xlink="http://www.w3.org/1999/xlink">
    <!-- Generator: Sketch 49 (51002) - http://www.bohemiancoding.com/sketch -->
    <desc>Created with Sketch.</desc>
    <defs>
        <radialGradient cx="50%" cy="0%" fx="50%" fy="0%" r="100%" id="radialGradient-1">
            <stop stop-color="#FF9C00" offset="0%"></stop>
            <stop stop-color="#0D9CFD" offset="100%"></stop>
        </radialGradient>
    </defs>
    <g id="Page-1" stroke="none" stroke-width="1" fill="none" fill-rule="evenodd">
        <g id="iPhone-6-Black-4.7-Inch-Form-Factor" transform="translate(-117.000000, -516.000000)" stroke="url(#radialGradient-1)" stroke-width="6">
            <g id="Group-13" transform="translate(95.000000, 494.000000)">
                <g id="Group-12" transform="translate(80.187491, 62.187491) rotate(223.000000) translate(-80.187491, -62.187491) translate(36.187491, 18.187491)">
                    <circle id="Oval-Copy" transform="translate(43.642845, 43.785228) rotate(371.000000) translate(-43.642845, -43.785228) " cx="43.6428454" cy="43.7852277" r="37"></circle>
                </g>
                <g id="Group-12-Copy-6" transform="translate(62.187491, 96.187491) rotate(223.000000) translate(-62.187491, -96.187491) translate(18.187491, 52.187491)">
                    <circle id="Oval-Copy" transform="translate(43.642845, 43.785228) rotate(371.000000) translate(-43.642845, -43.785228) " cx="43.6428454" cy="43.7852277" r="37"></circle>
                </g>
                <g id="Group-12-Copy-4" transform="translate(98.187491, 96.187491) rotate(223.000000) translate(-98.187491, -96.187491) translate(54.187491, 52.187491)">
                    <circle id="Oval-Copy" transform="translate(43.642845, 43.785228) rotate(371.000000) translate(-43.642845, -43.785228) " cx="43.6428454" cy="43.7852277" r="37"></circle>
                </g>
                <g id="Group-12-Copy-7" transform="translate(80.187491, 124.187491) rotate(223.000000) translate(-80.187491, -124.187491) translate(36.187491, 80.187491)">
                    <circle id="Oval-Copy" transform="translate(43.642845, 43.785228) rotate(371.000000) translate(-43.642845, -43.785228) " cx="43.6428454" cy="43.7852277" r="37"></circle>
                </g>
            </g>
        </g>
    </g>
</svg>